<svg width="57" height="34" viewBox="0 0 57 34" fill="none" xmlns="http://www.w3.org/2000/svg">
<g clip-path="url(#clip0_2602_7786)">
<path d="M35.9398 3.63574H21.0176V30.3682H35.9398V3.63574Z" fill="#FF671B"/>
<path d="M21.9645 17C21.9648 14.4244 22.5531 11.8825 23.6849 9.56714C24.8167 7.25174 26.4624 5.22352 28.4972 3.63613C25.9815 1.66441 22.96 0.438063 19.7781 0.0972866C16.5963 -0.24349 13.3824 0.315045 10.504 1.70905C7.62552 3.10306 5.19861 5.27628 3.50069 7.98029C1.80277 10.6843 0.902344 13.81 0.902344 17C0.902344 20.1901 1.80277 23.3157 3.50069 26.0197C5.19861 28.7237 7.62552 30.897 10.504 32.291C13.3824 33.685 16.5963 34.2435 19.7781 33.9027C22.96 33.562 25.9815 32.3356 28.4972 30.3639C26.4624 28.7765 24.8167 26.7483 23.6849 24.4329C22.5531 22.1175 21.9648 19.5757 21.9645 17Z" fill="#D22A2F"/>
<path d="M56.0687 16.9996C56.0651 20.1855 55.1636 23.3062 53.4669 26.006C51.7701 28.7058 49.3465 30.876 46.4724 32.2691C43.5982 33.6623 40.3891 34.2223 37.2111 33.8854C34.0331 33.5485 31.014 32.3281 28.498 30.3635C30.5277 28.7728 32.1685 26.7434 33.2968 24.4284C34.425 22.1135 35.0112 19.5734 35.0112 16.9996C35.0112 14.4259 34.425 11.8858 33.2968 9.57087C32.1685 7.2559 30.5277 5.22653 28.498 3.63577C31.014 1.67117 34.0331 0.450826 37.2111 0.1139C40.3891 -0.223025 43.5982 0.337022 46.4724 1.73017C49.3465 3.12333 51.7701 5.29353 53.4669 7.99332C55.1636 10.6931 56.0651 13.8138 56.0687 16.9996Z" fill="#F38B00"/>
<path d="M54.4436 27.5354V26.9876H54.6663V26.8743H54.1025V26.9876H54.3205V27.5354H54.4436ZM55.5379 27.5354V26.8743H55.3626L55.1684 27.3465L54.9695 26.8743H54.7942V27.5354H54.9173V27.0348L55.1021 27.4645H55.23L55.4148 27.0348V27.5354H55.5379Z" fill="#F79E1B"/>
</g>
<defs>
<clipPath id="clip0_2602_7786">
<rect width="57" height="34" fill="white"/>
</clipPath>
</defs>
</svg>
